<svg xmlns="http://www.w3.org/2000/svg" viewBox="0 0 400 160" width="400" height="160">
  <defs>
    <linearGradient id="mainGradT" x1="0%" y1="0%" x2="100%" y2="100%">
      <stop offset="0%" style="stop-color:#00D4FF;stop-opacity:1" />
      <stop offset="50%" style="stop-color:#0088CC;stop-opacity:1" />
      <stop offset="100%" style="stop-color:#004499;stop-opacity:1" />
    </linearGradient>
    <linearGradient id="glowGradT" x1="0%" y1="0%" x2="100%" y2="0%">
      <stop offset="0%" style="stop-color:#00D4FF;stop-opacity:0.8" />
      <stop offset="100%" style="stop-color:#0044AA;stop-opacity:0.2" />
    </linearGradient>
    <linearGradient id="iconGradT" x1="0%" y1="0%" x2="100%" y2="100%">
      <stop offset="0%" style="stop-color:#00EEFF;stop-opacity:1" />
      <stop offset="100%" style="stop-color:#0066CC;stop-opacity:1" />
    </linearGradient>
    <filter id="glowT" x="-20%" y="-20%" width="140%" height="140%">
      <feGaussianBlur stdDeviation="3" result="blur"/>
      <feMerge>
        <feMergeNode in="blur"/>
        <feMergeNode in="SourceGraphic"/>
      </feMerge>
    </filter>
    <filter id="strongGlowT" x="-30%" y="-30%" width="160%" height="160%">
      <feGaussianBlur stdDeviation="5" result="blur"/>
      <feMerge>
        <feMergeNode in="blur"/>
        <feMergeNode in="blur"/>
        <feMergeNode in="SourceGraphic"/>
      </feMerge>
    </filter>
  </defs>
  <g opacity="0.06" stroke="#00D4FF" stroke-width="0.5">
    <line x1="0" y1="40" x2="400" y2="40"/>
    <line x1="0" y1="80" x2="400" y2="80"/>
    <line x1="0" y1="120" x2="400" y2="120"/>
    <line x1="80" y1="0" x2="80" y2="160"/>
    <line x1="160" y1="0" x2="160" y2="160"/>
    <line x1="240" y1="0" x2="240" y2="160"/>
    <line x1="320" y1="0" x2="320" y2="160"/>
  </g>
  <circle cx="72" cy="80" r="48" fill="none" stroke="#00D4FF" stroke-width="0.5" opacity="0.2"/>
  <circle cx="72" cy="80" r="38" fill="none" stroke="#00AAFF" stroke-width="0.5" opacity="0.15"/>
  <g transform="translate(38, 44)" filter="url(#glowT)">
    <rect x="4" y="0" width="44" height="56" rx="4" ry="4" fill="none" stroke="url(#iconGradT)" stroke-width="1.5" opacity="0.9"/>
    <polyline points="34,0 44,10 34,10 34,0" fill="none" stroke="url(#iconGradT)" stroke-width="1.5" opacity="0.9"/>
    <line x1="12" y1="20" x2="36" y2="20" stroke="#00D4FF" stroke-width="1.5" opacity="0.9"/>
    <line x1="12" y1="28" x2="36" y2="28" stroke="#00D4FF" stroke-width="1.5" opacity="0.7"/>
    <line x1="12" y1="36" x2="28" y2="36" stroke="#00D4FF" stroke-width="1.5" opacity="0.5"/>
    <path d="M18 46 L30 46 M26 42 L30 46 L26 50" stroke="#00EEFF" stroke-width="1.8" stroke-linecap="round" stroke-linejoin="round" fill="none" filter="url(#strongGlowT)"/>
  </g>
  <line x1="132" y1="28" x2="132" y2="132" stroke="#00D4FF" stroke-width="0.8" opacity="0.3"/>
  <text x="152" y="90" font-family="'Courier New', Courier, monospace" font-size="52" font-weight="900" letter-spacing="-1" fill="url(#mainGradT)" filter="url(#glowT)">BSC</text>
  <text x="285" y="90" font-family="'Courier New', Courier, monospace" font-size="52" font-weight="900" letter-spacing="-1" fill="#FFFFFF" opacity="0.95">PRO</text>
  <text x="152" y="114" font-family="'Courier New', Courier, monospace" font-size="10" letter-spacing="3" fill="#00D4FF" opacity="0.7">BANK STATEMENT CONVERTER</text>
  <line x1="152" y1="122" x2="380" y2="122" stroke="url(#glowGradT)" stroke-width="1" opacity="0.5"/>
  <circle cx="372" cy="20" r="2" fill="#00D4FF" opacity="0.6"/>
  <circle cx="382" cy="20" r="2" fill="#00D4FF" opacity="0.4"/>
  <circle cx="392" cy="20" r="2" fill="#00D4FF" opacity="0.2"/>
  <circle cx="18" cy="142" r="2" fill="#00D4FF" opacity="0.3"/>
  <circle cx="28" cy="142" r="2" fill="#00D4FF" opacity="0.2"/>
</svg>